<?xml version="1.0" encoding="utf-8"?>
<!-- Generator: Adobe Illustrator 20.1.0, SVG Export Plug-In . SVG Version: 6.00 Build 0)  -->
<svg version="1.1" id="圖層_1" xmlns="http://www.w3.org/2000/svg" xmlns:xlink="http://www.w3.org/1999/xlink" x="0px" y="0px"
	 viewBox="0 0 100 100" style="enable-background:new 0 0 100 100;" xml:space="preserve">
<style type="text/css">
	.st0{fill-rule:evenodd;clip-rule:evenodd;fill:#C4C4C4;}
</style>
<path class="st0" d="M46.5,0.2c21.9-2.3,40.8,14.9,36.3,39.7c-1,5.8-4.5,10.8-7.1,16.3c-5.1,10.8-9.2,20-14.6,31.7
	c-2.7,5.8-5.2,12-10.9,12.1c-6.3,0.1-8-6-10.9-12.1c-5.2-11-9.6-19.9-14.6-30.5c-2.4-5-5.6-10-7.1-15.4C12.6,23.1,24.2,8.5,34.9,3.1
	C38.1,1.5,42.1,0.7,46.5,0.2z M48.6,49.9c24.6,2.2,23.4-36.8-1.3-33C27.4,20,30.5,48.3,48.6,49.9z"/>
</svg>
