<?xml version="1.0" encoding="utf-8"?>
<!-- Generator: Adobe Illustrator 20.1.0, SVG Export Plug-In . SVG Version: 6.00 Build 0)  -->
<svg version="1.1" id="圖層_1" xmlns="http://www.w3.org/2000/svg" xmlns:xlink="http://www.w3.org/1999/xlink" x="0px" y="0px"
	 viewBox="0 0 20 20" style="enable-background:new 0 0 20 20;" xml:space="preserve">
<style type="text/css">
	.st0{fill:#FFFFFF;}
</style>
<g>
	<path class="st0" d="M0.9,19.2L0.9,19.2c-0.6-0.6-0.6-1.6,0-2.2l16-16c0.6-0.6,1.6-0.6,2.2,0l0,0c0.6,0.6,0.6,1.6,0,2.2l-16,16
		C2.5,19.9,1.5,19.9,0.9,19.2z"/>
	<path class="st0" d="M0.9,1L0.9,1c0.6-0.6,1.6-0.6,2.2,0l16,16c0.6,0.6,0.6,1.6,0,2.2l0,0c-0.6,0.6-1.6,0.6-2.2,0l-16-16
		C0.2,2.7,0.2,1.7,0.9,1z"/>
</g>
</svg>
