<?xml version="1.0" encoding="utf-8"?>
<!-- Generator: Adobe Illustrator 20.1.0, SVG Export Plug-In . SVG Version: 6.00 Build 0)  -->
<svg version="1.1" id="圖層_1" xmlns="http://www.w3.org/2000/svg" xmlns:xlink="http://www.w3.org/1999/xlink" x="0px" y="0px"
	 viewBox="0 0 117 100" style="enable-background:new 0 0 117 100;" xml:space="preserve">
<style type="text/css">
	.st0{fill-rule:evenodd;clip-rule:evenodd;fill:#C4C4C4;}
</style>
<path class="st0" d="M25.1,1.3c2.1,1.8,2.4,5.4,3.1,8.6c21.5,0,45.2,0,67.5,0c7.3,0,14.9-1.3,20.7,1.8c0.7,12.8,0.7,28.6,0,41.4
	c-5.4,2.9-12.1,2.8-18.5,3.6c-18.7,2.2-39.2,4.3-58.1,6.8c0.2,1.9,1,7.3-0.9,9.5c14.8,0,35.7,0,54,0c6.3,0,13.9-1,14.9,3.2
	c1,4.3-2.2,6.2-6.8,5.9c3.1,1.6,6.1,3.2,6.8,6.3c3.6,15.9-20.9,14.5-17.6,0c0.6-2.7,2.8-4.8,6.8-5.9c-18.8-1-39.5-0.2-59-0.4
	c3.5,1.8,6.1,3.3,6.8,6.3c3.3,14.4-21.2,16-17.6,0c0.6-2.8,3.2-5,6.8-5.9c-2.7-0.6-5.7-0.9-6.8-3.2c-0.4-5.5,2.5-7.7,4.1-11.3
	c-3.8-19.6-8.6-38.2-12.2-58.1C12.7,8.9,1.9,12.1,0.3,7.1C-2.8-2.8,17.5,1.3,25.1,1.3z"/>
</svg>
